<svg id="Capa_1" enable-background="new 0 0 512 512" height="512" viewBox="0 0 512 512" width="512" xmlns="http://www.w3.org/2000/svg"><g><g><path d="m120.11 502h-61.027c-5.523 0-10-4.477-10-10v-472c0-5.523 4.477-10 10-10h61.027z" fill="#fff"/><path d="m120.11 502h266.705c5.523 0 10-4.477 10-10v-472c0-5.523-4.477-10-10-10h-266.705z" fill="#d5ea79"/><path d="m452.917 121.6h-56.101v-68.12h56.101c5.523 0 10 4.477 10 10v48.12c0 5.523-4.477 10-10 10z" fill="#eaaacb"/><path d="m396.816 121.6h47.984v68.12h-47.984z" fill="#99ebfa"/><path d="m452.917 257.84h-56.101v-68.12h56.101c5.523 0 10 4.477 10 10v48.12c0 5.523-4.477 10-10 10z" fill="#fff3a0"/><path d="m250.976 154.183 12.664-5.354c6.774-2.909 9.929-10.709 7.02-17.483l-17.312-40.316c-2.909-6.774-10.759-9.908-17.533-6.999 0 0-13.789 5.853-14.48 6.179-19.108 9.035-31.771 28.064-36.911 51.918-6.278 25.544-.646 63.064 10.247 85.863 24.788 58.419 77.3 92.193 118.084 76.383.556-.216 14.326-6.025 14.326-6.025 6.774-2.909 9.85-10.895 6.942-17.669l-17.312-40.316c-2.909-6.774-10.718-9.812-17.493-6.904l-12.384 5.235c-5.34-2.982-24.905-14.742-33.984-39.656-7.462-20.481-3.629-38.3-1.874-44.856z" fill="#9ea6bf"/></g><g><path d="m472.917 111.601v-48.121c0-11.028-8.972-20-20-20h-46.102v-23.48c0-11.028-8.972-20-20-20h-327.732c-11.028 0-20 8.972-20 20v472c0 11.028 8.972 20 20 20h327.732c11.028 0 20-8.972 20-20v-72.725c0-5.522-4.477-10-10-10s-10 4.478-10 10v72.725h-256.705v-472h256.705v308.155c0 5.522 4.477 10 10 10s10-4.478 10-10v-60.315h46.102c11.028 0 20-8.972 20-20v-48.12c0-10.393-7.97-18.952-18.117-19.905v-48.31c10.147-.953 18.117-9.512 18.117-19.904zm-413.834-91.601h51.027v472h-51.027zm375.717 159.72h-27.984v-48.119h27.984zm18.117-116.24.012 48.119s-.004.001-.012.001h-46.102v-48.12zm0 184.36h-46.102v-48.12h46.102l.012 48.119s-.004.001-.012.001z"/><path d="m343.213 276.735-17.312-40.317c-5.058-11.778-18.799-17.228-30.575-12.168l-7.658 3.237c-7.51-5.003-19.305-15.087-25.421-31.871-4.953-13.593-4.192-26.084-2.662-34.217l8-3.382c11.83-5.08 17.331-18.814 12.264-30.617l-17.312-40.317c-2.461-5.73-7.006-10.16-12.798-12.472s-12.138-2.229-17.831.214c-13.977 5.933-14.636 6.244-14.847 6.345-21.312 10.075-36.359 30.925-42.382 58.714-6.377 26.165-1.71 65.727 10.874 92.216 12.754 29.957 32.898 54.926 56.738 70.319 16.283 10.515 33.139 15.874 49.227 15.873 8.572 0 16.928-1.521 24.859-4.597.458-.178 5.367-2.24 14.651-6.157 11.831-5.08 17.297-18.898 12.185-30.803zm-20.017 12.401c-5.081 2.144-13.414 5.654-14.054 5.914-35.586 13.796-82.808-18.04-105.265-70.965-.058-.136-.119-.271-.183-.405-9.418-19.711-15.569-54.712-9.56-79.165.023-.094.044-.187.064-.28 4.656-21.604 15.785-37.565 31.347-44.954 1.059-.47 9.209-3.938 14.214-6.062 1.698-.728 3.671.059 4.399 1.756l17.311 40.316c.729 1.698-.052 3.608-1.725 4.327l-12.664 5.354c-2.841 1.201-4.969 3.646-5.767 6.625-2.593 9.688-5.763 29.179 2.141 50.867 9.688 26.584 30.154 40.3 38.503 44.963 2.693 1.504 5.929 1.68 8.77.48l12.437-5.258c1.142-.492 2.114-.249 2.593-.061.563.221 1.326.699 1.765 1.721l17.312 40.316c.749 1.743-.028 3.819-1.638 4.511z"/><path d="m341.025 363.729c0-5.522-4.477-10-10-10h-145.125c-5.523 0-10 4.478-10 10s4.477 10 10 10h145.125c5.523 0 10-4.478 10-10z"/><path d="m215.612 405.563c-5.523 0-10 4.478-10 10s4.477 10 10 10h85.701c5.523 0 10-4.478 10-10s-4.477-10-10-10z"/><circle cx="396.815" cy="373.729" r="10"/></g></g></svg>