<svg viewBox="0 0 512 512" xmlns="http://www.w3.org/2000/svg"><path d="m116.585938 305.164062h-20.117188c-47.753906 0-86.46875-38.691406-86.46875-86.417968 0-47.722656 38.714844-86.410156 86.46875-86.410156 1.691406 0 3.367188.0625 5.03125.15625 14.40625-69.921876 76.3125-122.492188 150.5-122.492188 66.238281 0 122.6875 41.914062 144.277344 100.664062 2.167968-.230468 4.363281-.359374 6.589844-.359374 34.222656 0 61.964843 27.722656 61.964843 61.925781 0 4.679687-.535156 9.234375-1.523437 13.617187 22.683594 9.195313 38.691406 31.417969 38.691406 57.390625 0 34.199219-27.742188 61.921875-61.964844 61.921875h-323.449218zm0 0" fill="#72d8ff"/><path d="m181.074219 502h149.851562c10.347657 0 18.734375-8.386719 18.734375-18.730469v-250.539062c0-10.34375-8.386718-18.730469-18.734375-18.730469h-149.851562c-10.347657 0-18.734375 8.386719-18.734375 18.730469v250.539062c0 10.34375 8.386718 18.730469 18.734375 18.730469zm0 0" fill="#c9f3ff"/><path d="m162.339844 258h187.316406v200h-187.316406zm0 0" fill="#fff"/><path d="m474.402344 180.035156c.285156-2.597656.429687-5.207031.429687-7.804687 0-39.632813-32.238281-71.882813-71.882812-71.925781-11.8125-28.167969-31.152344-52.3125-56.273438-70.15625-27.769531-19.722657-60.503906-30.148438-94.675781-30.148438-37.890625 0-74.835938 13.25-104.027344 37.308594-26.640625 21.957031-45.738281 51.925781-54.378906 85.066406-51.867188 1.523438-93.59375 44.171875-93.59375 96.371094 0 53.164062 43.273438 96.417968 96.46875 96.417968h55.875v168.105469c0 15.839844 12.886719 28.730469 28.730469 28.730469h149.851562c15.84375 0 28.730469-12.890625 28.730469-28.730469v-168.105469h80.378906c39.683594 0 71.964844-32.265624 71.964844-71.925781 0-26.699219-14.519531-50.710937-37.597656-63.203125zm-302.058594 87.964844h167.3125v180h-167.3125zm167.3125-20h-167.3125v-15.269531c0-4.8125 3.914062-8.730469 8.730469-8.730469h149.851562c4.816407 0 8.730469 3.917969 8.730469 8.730469zm-8.730469 244h-149.851562c-4.816407 0-8.730469-3.917969-8.730469-8.730469v-15.269531h167.3125v15.269531c0 4.8125-3.914062 8.730469-8.730469 8.730469zm109.109375-196.835938h-80.378906v-62.433593c0-15.839844-12.886719-28.730469-28.730469-28.730469h-149.851562c-15.84375 0-28.730469 12.890625-28.730469 28.730469v62.433593h-55.875c-42.164062 0-76.46875-34.28125-76.46875-76.417968 0-42.132813 34.304688-76.414063 76.46875-76.414063 1.136719 0 2.261719.039063 3.390625.089844.347656.015625.699219.03125 1.066406.054687h.125c9.332031.546876 18.347657 2.75 26.863281 6.589844 1.332032.605469 2.730469.890625 4.105469.890625 3.8125 0 7.453125-2.191406 9.121094-5.890625 2.273437-5.03125.035156-10.953125-5-13.226562-7.15625-3.230469-14.585937-5.546875-22.222656-6.9375 17.488281-60.8125 73.898437-103.902344 138.082031-103.902344 59.996094 0 114.207031 37.820312 134.894531 94.113281 1.578125 4.300781 5.894531 6.972657 10.4375 6.496094 1.90625-.203125 3.769531-.304687 5.539063-.304687 28.652344 0 51.964844 23.292968 51.964844 51.925781 0 3.804687-.433594 7.648437-1.28125 11.425781-1.070313 4.773438 1.46875 9.621094 6 11.457031 19.710937 7.992188 32.445312 26.882813 32.445312 48.125 0 28.632813-23.3125 51.925781-51.964844 51.925781zm0 0"/><path d="m169.738281 156.03125c-3.601562-4.183594-9.914062-4.65625-14.101562-1.050781-4.1875 3.601562-4.65625 9.917969-1.054688 14.101562l.128907.148438c1.980468 2.335937 4.796874 3.539062 7.636718 3.539062 2.285156 0 4.578125-.78125 6.457032-2.371093 4.214843-3.570313 4.738281-9.878907 1.167968-14.09375zm0 0"/><path d="m256 469.308594c-2.628906 0-5.210938 1.070312-7.070312 2.929687-1.859376 1.863281-2.929688 4.441407-2.929688 7.070313 0 2.632812 1.070312 5.210937 2.929688 7.070312 1.859374 1.859375 4.441406 2.929688 7.070312 2.929688s5.210938-1.070313 7.070312-2.929688c1.859376-1.859375 2.929688-4.429687 2.929688-7.070312 0-2.628906-1.070312-5.207032-2.929688-7.070313-1.859374-1.859375-4.441406-2.929687-7.070312-2.929687zm0 0"/><path d="m315.023438 340.117188c-15.765626-15.769532-36.726563-24.453126-59.023438-24.453126s-43.257812 8.683594-59.023438 24.453126c-3.90625 3.902343-3.90625 10.234374 0 14.140624s10.234376 3.90625 14.140626 0c11.988281-11.988281 27.929687-18.589843 44.882812-18.589843s32.894531 6.601562 44.882812 18.589843c1.953126 1.953126 4.511719 2.929688 7.070313 2.929688 2.5625 0 5.121094-.976562 7.074219-2.929688 3.902344-3.90625 3.902344-10.238281-.003906-14.140624zm0 0"/><path d="m224.078125 367.21875c-3.90625 3.90625-3.90625 10.238281 0 14.144531s10.234375 3.90625 14.144531 0c9.800782-9.804687 25.753906-9.804687 35.558594 0 1.953125 1.953125 4.511719 2.925781 7.070312 2.925781 2.558594 0 5.117188-.976562 7.070313-2.925781 3.90625-3.90625 3.90625-10.238281 0-14.144531-17.601563-17.601562-46.242187-17.601562-63.84375 0zm0 0"/><path d="m256 389.988281c-2.628906 0-5.210938 1.070313-7.070312 2.933594-1.859376 1.859375-2.929688 4.4375-2.929688 7.066406 0 2.632813 1.070312 5.210938 2.929688 7.070313 1.859374 1.863281 4.441406 2.929687 7.070312 2.929687s5.210938-1.066406 7.070312-2.929687c1.859376-1.859375 2.929688-4.4375 2.929688-7.070313 0-2.628906-1.070312-5.207031-2.929688-7.066406-1.859374-1.863281-4.441406-2.933594-7.070312-2.933594zm0 0"/><path d="m448 389c-5.523438 0-10 4.476562-10 10v39h-20.054688l.132813-.136719c3.90625-3.902343 3.90625-10.234375 0-14.140625s-10.234375-3.90625-14.140625 0l-17.207031 17.207032c-3.90625 3.902343-3.90625 10.234374 0 14.140624l17.207031 17.207032c1.953125 1.953125 4.511719 2.929687 7.070312 2.929687 2.558594 0 5.117188-.976562 7.070313-2.929687 3.90625-3.90625 3.90625-10.238282 0-14.144532l-.132813-.132812h30.054688c5.523438 0 10-4.476562 10-10v-49c0-5.523438-4.476562-10-10-10zm0 0"/><path d="m448 340c-2.628906 0-5.210938 1.070312-7.070312 2.929688-1.859376 1.859374-2.929688 4.441406-2.929688 7.070312s1.070312 5.210938 2.929688 7.070312c1.859374 1.859376 4.441406 2.929688 7.070312 2.929688s5.210938-1.070312 7.070312-2.929688c1.859376-1.859374 2.929688-4.441406 2.929688-7.070312s-1.070312-5.210938-2.929688-7.070312c-1.859374-1.859376-4.441406-2.929688-7.070312-2.929688zm0 0"/><path d="m111.5 438h-37.5v-67.066406l.136719.136718c1.953125 1.953126 4.511719 2.925782 7.070312 2.925782 2.558594 0 5.117188-.976563 7.070313-2.925782 3.90625-3.90625 3.90625-10.238281 0-14.144531l-17.207032-17.207031c-1.875-1.875-4.417968-2.929688-7.070312-2.929688s-5.195312 1.054688-7.070312 2.929688l-17.207032 17.207031c-3.90625 3.90625-3.90625 10.238281 0 14.144531 3.90625 3.902344 10.238282 3.902344 14.144532 0l.132812-.136718v77.066406c0 5.523438 4.476562 10 10 10h47.5c5.523438 0 10-4.476562 10-10s-4.476562-10-10-10zm0 0"/></svg>