<svg id="Capa_1" enable-background="new 0 0 512 512" viewBox="0 0 512 512" xmlns="http://www.w3.org/2000/svg"><g><g><path d="m96 412c-44.183 0-80 35.817-80 80v10h160v-10c0-44.183-35.817-80-80-80z" fill="#99ebfa"/><circle cx="96" cy="367" fill="#ffdcd5" r="45"/><path d="m336 502v-10c0-44.183-35.817-80-80-80-44.183 0-80 35.817-80 80v10z" fill="#ffda8f"/><circle cx="256" cy="367" fill="#ffdcd5" r="45"/><path d="m416 412c-44.183 0-80 35.817-80 80v10h160v-10c0-44.183-35.817-80-80-80z" fill="#ff7d97"/><circle cx="416" cy="367" fill="#ffdcd5" r="45"/><g><path d="m256 10c-49.706 0-90 40.294-90 90v120h180v-52.5-67.5c0-5.812-.551-11.495-1.603-17-7.948-41.578-44.503-73-88.397-73z" fill="#d1a184"/><path d="m301 180h-90c-33.137 0-60 26.863-60 60v40h210v-40c0-33.137-26.863-60-60-60z" fill="#fff"/><g fill="#ffdcd5"><path d="m221 180 35 50 35-50z"/><path d="m306 90h-11.716c-18.11 0-35.478-7.194-48.284-20l-40 20v40c0 27.614 22.386 50 50 50 27.614 0 50-22.386 50-50z"/></g></g></g><g><g><path d="m451.247 409.19c12.066-10.097 19.753-25.263 19.753-42.19 0-30.327-24.673-55-55-55s-55 24.673-55 55c0 16.927 7.687 32.093 19.753 42.19-19.303 8.247-35.16 23.054-44.753 41.603-9.593-18.549-25.45-33.355-44.753-41.603 12.066-10.097 19.753-25.263 19.753-42.19 0-30.327-24.673-55-55-55s-55 24.673-55 55c0 16.927 7.687 32.093 19.753 42.19-19.303 8.247-35.16 23.054-44.753 41.603-9.593-18.549-25.45-33.355-44.753-41.603 12.066-10.097 19.753-25.263 19.753-42.19 0-30.327-24.673-55-55-55s-55 24.673-55 55c0 16.927 7.687 32.093 19.753 42.19-32.159 13.74-54.753 45.686-54.753 82.81v10c0 5.523 4.478 10 10 10h195c5.522 0 10-4.477 10-10s-4.478-10-10-10h-25c0-38.598 31.402-70 70-70s70 31.402 70 70h-25c-5.522 0-10 4.477-10 10s4.478 10 10 10h195c5.522 0 10-4.477 10-10v-10c0-37.124-22.594-69.07-54.753-82.81zm-390.247-42.19c0-19.299 15.701-35 35-35s35 15.701 35 35-15.701 35-35 35-35-15.701-35-35zm35 55c38.598 0 70 31.402 70 70h-140c0-38.598 31.402-70 70-70zm125-55c0-19.299 15.701-35 35-35s35 15.701 35 35-15.701 35-35 35-35-15.701-35-35zm160 0c0-19.299 15.701-35 35-35s35 15.701 35 35-15.701 35-35 35-35-15.701-35-35zm-35 125c0-38.598 31.402-70 70-70s70 31.402 70 70z"/><circle cx="256" cy="502" r="10"/></g><path d="m356 196.745v-96.745c0-55.14-44.859-100-100-100s-100 44.86-100 100v96.745c-9.391 11.915-15 26.943-15 43.255v40c0 5.523 4.478 10 10 10h210c5.522 0 10-4.477 10-10v-40c0-16.313-5.609-31.341-15-43.255zm-100-176.745c44.112 0 80 35.888 80 80v79.394c-10.302-5.973-22.259-9.394-35-9.394h-.315c9.519-10.623 15.315-24.647 15.315-40v-40c0-5.523-4.478-10-10-10h-11.716c-15.568 0-30.205-6.062-41.213-17.071-3.044-3.042-7.692-3.797-11.543-1.873l-40 20c-3.388 1.694-5.528 5.156-5.528 8.944v40c0 15.353 5.796 29.377 15.315 40h-.315c-12.741 0-24.698 3.422-35 9.394v-79.394c0-44.112 35.888-80 80-80zm0 192.562-15.793-22.562h31.586zm-40-82.562v-33.82l28.342-14.171c14.013 11.65 31.491 17.991 49.942 17.991h1.716v30c0 22.056-17.944 40-40 40s-40-17.944-40-40zm-55 110c0-27.57 22.43-50 50-50h4.793l30.207 43.153v36.847h-85zm190 30h-85v-36.847l30.207-43.153h4.793c27.57 0 50 22.43 50 50z"/></g></g><g/><g/><g/><g/><g/><g/><g/><g/><g/><g/><g/><g/><g/><g/><g/></svg>