<svg id="Capa_1" enable-background="new 0 0 512 512" height="512" viewBox="0 0 512 512" width="512" xmlns="http://www.w3.org/2000/svg"><g><g><g fill="#a6bdce"><g clip-rule="evenodd" fill-rule="evenodd"><circle cx="80.638" cy="38.737" r="28.717"/><circle cx="194.52" cy="38.737" r="28.717"/><circle cx="308.402" cy="38.737" r="28.717"/><circle cx="80.638" cy="152.619" r="28.717"/><circle cx="194.52" cy="152.619" r="28.717"/><circle cx="80.638" cy="266.5" r="28.717"/><circle cx="194.52" cy="266.5" r="28.717"/></g><circle cx="356.53" cy="501.98" r="10.02"/></g><path clip-rule="evenodd" d="m287.801 97.452-3.352 191.891-14.278-44.076c-7.081-23.285-30.262-19.768-30.262-19.768-13.212 2.282-18.606 18.704-16.312 32.308l17.433 85.824c10.035 59.514 54.71 85.897 54.71 85.897l-.868 72.866 117.652 1.491.938-70.19 28.416-39.666c24.274-40.809 16.783-104.304 16.793-112.146l.047-36.724c.016-12.121-11.581-26.904-23.339-26.92-11.759-.016-19.227 14.741-19.242 26.862l-.253-15.676c.015-11.942-9.508-31.23-21.094-31.245-10.265-.014-19.294 17.169-21.121 27.206l.019-14.828c.015-11.942-7.573-27.828-19.158-27.844l-2.418.104c-10.283-.014-18.841 13.69-20.648 23.752l-.418-.335v-108.348c0-12.311-9.682-22.29-21.625-22.29.001 0-21.62-1.75-21.62 21.855z" fill="#ffdcd4" fill-rule="evenodd"/></g><g><path d="m470.029 337.747v-100.224c.024-16.517-13.904-31.616-30.416-32.972-4.988-.412-10.862-.402-16.929 1.764-5.485-11.08-14.979-17.519-27.304-18.137-1.479-.093-7.404-.276-14.622 2.23-4.498-10.034-13.391-17.713-26.227-17.713-4.829 0-9.269.863-13.23 2.471v-84.674c.01-8.368-3.173-16.01-8.399-21.776 8.684-7.11 14.237-17.907 14.237-29.979 0-21.36-17.378-38.737-38.737-38.737s-38.737 17.377-38.737 38.737c0 12.301 5.771 23.273 14.739 30.374-4.99 5.698-8.03 13.147-8.041 21.3l-.133 145.119c-4.428-13.781-16.562-23.032-30.74-23.21-3.564-.023-7.015.477-10.393 1.521-9.841 3.052-17.586 10.175-21.539 18.943-5.627-3.19-12.121-5.021-19.037-5.021-21.36 0-38.738 17.377-38.738 38.737s17.378 38.737 38.738 38.737c9.31 0 17.863-3.303 24.551-8.798l9.443 54.328c5.193 44.922 54.582 80.124 54.669 80.188v70.697c-.032 2.678 1.009 5.258 2.891 7.163 1.883 1.905 4.449 2.978 7.127 2.978h18.704c5.533 0 10.02-4.486 10.02-10.02s-4.486-10.02-10.02-10.02h-7.772v-65.592c.037-3.033-1.302-5.92-3.643-7.85-1.239-1.022-2.805-2.182-4.789-3.651-12.818-9.497-42.838-31.737-47.342-66.679-.019-.145-.041-.29-.066-.434l-17.574-101.112c-.226-5.806 4.139-11.54 10.301-13.451 7.359-2.277 14.41 2.175 16.356 9.445.047.176 19.291 59.047 19.291 59.047 1.53 4.679 6.228 7.553 11.096 6.781 4.862-.772 8.442-4.963 8.447-9.886l.192-207.939c.005-3.31 1.297-6.421 3.642-8.759 2.341-2.334 5.447-3.618 8.751-3.618h.018c6.873.009 12.457 5.576 12.448 12.423l-.001 160.573c0 5.534 4.486 10.02 10.02 10.02 5.533 0 10.02-4.486 10.02-10.02 0 0 .054-41.977.055-42.326.009-7.296 2.302-15.993 13.176-15.993 8.697 0 9.503 11.66 9.567 13.024v46.313c0 5.534 4.486 10.02 10.02 10.02s10.02-4.486 10.02-10.02v-41.308c4.822-2.632 9.389-2.602 10.048-2.582.128.014-.185-.008 0 0 2.516.119 10.211.492 12.893 14.361v29.528c0 5.534 4.486 10.02 10.02 10.02s10.02-4.486 10.02-10.02v-25.743c3.148-1.943 6.459-2.166 10.855-1.806 6.187.508 12.026 6.812 12.018 12.985 0 0 .005 100.835.014 101.009 1.606 30.775-31.943 69.312-38.451 75.416-2.199 1.869-3.492 4.605-3.527 7.51l-.866 70.518h-5.302c-5.533 0-10.02 4.486-10.02 10.02s4.486 10.02 10.02 10.02h15.2c5.485 0 9.951-4.411 10.019-9.897l.938-76.384c4.844-5.155 13.042-14.825 20.787-26.558 14.945-22.647 22.087-43.307 21.224-61.411zm-275.509-52.549c-10.31 0-18.699-8.388-18.699-18.698s8.388-18.698 18.699-18.698c10.31 0 18.698 8.388 18.698 18.698s-8.387 18.698-18.698 18.698zm113.882-265.159c10.31 0 18.698 8.388 18.698 18.698s-8.387 18.698-18.698 18.698-18.698-8.388-18.698-18.698 8.388-18.698 18.698-18.698zm103.205 393.848c.177-.153.316-.255.403-.32-.137.103-.271.209-.403.32z"/><path d="m80.638 0c-21.359 0-38.737 17.377-38.737 38.737s17.378 38.737 38.737 38.737c21.36 0 38.738-17.377 38.738-38.737s-17.378-38.737-38.738-38.737zm0 57.434c-10.31 0-18.698-8.388-18.698-18.698s8.387-18.698 18.698-18.698 18.699 8.388 18.699 18.698-8.389 18.698-18.699 18.698z"/><path d="m194.52 77.474c21.359 0 38.737-17.377 38.737-38.737s-17.378-38.737-38.737-38.737c-21.36 0-38.738 17.377-38.738 38.737s17.378 38.737 38.738 38.737zm0-57.435c10.31 0 18.698 8.388 18.698 18.698s-8.387 18.698-18.698 18.698c-10.31 0-18.699-8.388-18.699-18.698s8.389-18.698 18.699-18.698z"/><path d="m80.638 113.882c-21.359 0-38.737 17.377-38.737 38.737s17.378 38.737 38.737 38.737c21.36 0 38.738-17.377 38.738-38.737s-17.378-38.737-38.738-38.737zm0 57.434c-10.31 0-18.698-8.388-18.698-18.698s8.387-18.698 18.698-18.698 18.699 8.388 18.699 18.698c-.001 10.31-8.389 18.698-18.699 18.698z"/><path d="m194.52 191.355c21.359 0 38.737-17.377 38.737-38.737s-17.378-38.737-38.737-38.737c-21.36 0-38.738 17.377-38.738 38.737s17.378 38.737 38.738 38.737zm0-57.434c10.31 0 18.698 8.388 18.698 18.698s-8.387 18.698-18.698 18.698c-10.31 0-18.699-8.388-18.699-18.698.001-10.31 8.389-18.698 18.699-18.698z"/><path d="m80.638 227.763c-21.359 0-38.737 17.377-38.737 38.737s17.378 38.737 38.737 38.737c21.36 0 38.738-17.378 38.738-38.737s-17.378-38.737-38.738-38.737zm0 57.435c-10.31 0-18.698-8.388-18.698-18.698s8.387-18.698 18.698-18.698 18.699 8.388 18.699 18.698c-.001 10.31-8.389 18.698-18.699 18.698z"/><circle cx="356.529" cy="501.98" r="10"/></g></g></svg>