<svg id="Capa_1" enable-background="new 0 0 512 512" viewBox="0 0 512 512" xmlns="http://www.w3.org/2000/svg"><g><g><path d="m155 10h60v80h-60z" fill="#ff9eb1"/><circle cx="185" cy="235" fill="#ff9eb1" r="175"/><circle cx="185" cy="235" fill="#fff" r="135"/><path d="m482 342h-270c-11.046 0-20 8.954-20 20v120c0 11.046 8.954 20 20 20h270c11.046 0 20-8.954 20-20v-120c0-11.046-8.954-20-20-20z" fill="#a0c8ff"/><circle cx="185" cy="235" fill="#9ea6bf" r="20"/></g><g><path d="m482 332h-139.422c17.994-29.073 27.422-62.242 27.422-97 0-47.414-17.937-90.713-47.372-123.485l14.4-14.4 7.071 7.071c3.905 3.905 10.237 3.905 14.142 0 3.906-3.905 3.906-10.237 0-14.142l-28.284-28.284c-3.905-3.905-10.237-3.905-14.142 0-3.906 3.905-3.906 10.237 0 14.143l7.071 7.071-14.4 14.4c-23.282-20.912-51.877-36.011-83.486-43.006v-34.368h10c5.522 0 10-4.477 10-10s-4.478-10-10-10h-100c-5.522 0-10 4.477-10 10s4.478 10 10 10h10v34.368c-31.609 6.995-60.204 22.093-83.486 43.004l-14.4-14.4 7.071-7.071c3.905-3.905 3.905-10.237 0-14.143-3.905-3.905-10.237-3.905-14.142 0l-28.284 28.285c-3.905 3.905-3.905 10.237 0 14.142 3.905 3.905 10.237 3.905 14.142 0l7.071-7.071 14.4 14.4c-29.435 32.773-47.372 76.072-47.372 123.486 0 101.007 81.37 183.352 182 184.962v62.038c0 16.542 13.458 30 30 30h90c5.522 0 10-4.478 10-10s-4.478-10-10-10h-90c-5.514 0-10-4.486-10-10v-120c0-5.514 4.486-10 10-10h270c5.514 0 10 4.486 10 10v120c0 5.514-4.486 10-10 10h-90c-5.522 0-10 4.478-10 10s4.478 10 10 10h90c16.542 0 30-13.458 30-30v-120c0-16.542-13.458-30-30-30zm-317-312h40v31.084c-6.572-.709-13.243-1.084-20-1.084s-13.428.375-20 1.084zm-145 215c0-90.981 74.019-165 165-165s165 74.019 165 165c0 35.271-10.885 68.7-31.518 97h-25.666c23.869-26.401 37.184-60.586 37.184-97 0-79.953-65.047-145-145-145s-145 65.047-145 145c0 78.95 63.427 143.358 142 144.962v20c-89.602-1.607-162-74.984-162-164.962zm162.077 124.963c-29.731-.686-56.926-11.807-78.066-29.831l6.743-6.743c3.905-3.905 3.905-10.237 0-14.142-3.905-3.905-10.237-3.905-14.142 0l-6.743 6.743c-16.585-19.452-27.324-44.028-29.468-70.99h9.599c5.523 0 10-4.477 10-10s-4.477-10-10-10h-9.599c2.144-26.963 12.884-51.539 29.468-70.99l6.743 6.743c3.905 3.905 10.237 3.905 14.142 0 3.905-3.905 3.905-10.237 0-14.142l-6.743-6.743c19.451-16.584 44.027-27.323 70.989-29.468v9.6c0 5.523 4.477 10 10 10s10-4.477 10-10v-9.599c26.962 2.144 51.538 12.884 70.989 29.468l-6.743 6.743c-3.905 3.905-3.905 10.237 0 14.142 3.905 3.905 10.237 3.905 14.142 0l6.743-6.743c16.584 19.451 27.324 44.027 29.468 70.99h-9.599c-5.523 0-10 4.477-10 10s4.477 10 10 10h9.6c-2.077 26.468-12.369 51.155-29.399 71.058l-6.812-6.812c-3.905-3.905-10.237-3.905-14.142 0-3.905 3.905-3.905 10.237 0 14.142l6.784 6.784c-.723.615-1.448 1.227-2.187 1.827h-51.844c-15.857 0-28.871 12.368-29.923 27.963z"/><circle cx="347" cy="502" r="10"/><path d="m405.681 465.559 5.028-13.203h34.46l4.972 13.174c1.95 5.167 7.719 7.775 12.886 5.825 5.167-1.95 7.775-7.72 5.825-12.887l-29.768-78.877c-.249-.662-.55-1.272-1.281-2.209-2.666-3.415-6.787-5.383-11.12-5.383-2.42 0-4.753.977-6.424 2.729-1.538 1.613-2.615 3.226-3.23 4.839l-30.04 78.873c-1.966 5.161.625 10.939 5.786 12.904 5.163 1.967 10.941-.624 12.906-5.785zm22.338-58.65 9.604 25.447h-19.295z"/><path d="m356.337 451.933c-.018 0-.035 0-.053 0-6.896.036-14.292.062-19.948.066v-69.999c0-5.522-4.478-10-10-10s-10 4.478-10 10v79.933c0 4.914 3.57 9.1 8.422 9.875.663.105 1.229.196 10.722.196 4.567 0 11.203-.021 20.908-.071 5.523-.029 9.977-4.529 9.948-10.052-.028-5.506-4.5-9.948-9.999-9.948z"/><path d="m262.317 452c-7.927 0-15.555-3.195-20.406-8.547-3.708-4.092-10.033-4.401-14.125-.693-4.092 3.709-4.402 10.033-.693 14.125 8.579 9.465 21.748 15.115 35.224 15.115 16.832 0 30.968-10.741 33.61-25.541 1.988-11.138-3.066-25.688-23.218-33.121-9.801-3.615-18.924-7.552-21.729-8.779-2.16-1.74-2.088-4.162-1.943-5.173.202-1.404 1.223-4.837 6.334-6.376 10.118-3.048 18.338 1.705 20.351 3.41 2.914 3.863 8.286 5.141 12.688 2.787 4.871-2.603 6.711-8.661 4.108-13.532-3.865-7.234-22.517-17.959-42.917-11.815-11.027 3.322-18.829 12.015-20.361 22.685-1.438 10.013 2.902 19.645 11.326 25.137.442.288.906.541 1.388.756.462.206 11.454 5.099 23.834 9.665 3.494 1.289 11.507 4.926 10.451 10.842-.795 4.451-6.219 9.055-13.922 9.055z"/><path d="m195 206.72v-46.72c0-5.523-4.478-10-10-10s-10 4.477-10 10v46.72c-11.639 4.128-20 15.243-20 28.28 0 16.542 13.458 30 30 30s30-13.458 30-30c0-13.036-8.361-24.152-20-28.28zm-10 38.28c-5.514 0-10-4.486-10-10s4.486-10 10-10 10 4.486 10 10-4.486 10-10 10z"/></g></g><g/><g/><g/><g/><g/><g/><g/><g/><g/><g/><g/><g/><g/><g/><g/></svg>