<svg id="Capa_1" enable-background="new 0 0 512.002 512.002" height="512" viewBox="0 0 512.002 512.002" width="512" xmlns="http://www.w3.org/2000/svg"><g><g fill="#ff7d97"><path d="m374.47 41.091h-118.474-118.474c-63.441 0-114.87 51.429-114.87 114.87v13.084l.037.008c2.231-.86 4.777-1.35 7.311-1.35h86.059c2.458 0 4.802.465 6.977 1.276 5.335-28.397 30.247-49.888 60.193-49.888h72.767 72.767c29.946 0 54.858 21.491 60.193 49.888 2.175-.811 4.519-1.276 6.977-1.276h86.069c2.534 0 5.069.49 7.3 1.35l.037-.008v-13.084c0-63.441-51.429-114.87-114.869-114.87z"/><path d="m100.542 422.911h40v56h-40z" transform="matrix(0 1 -1 0 571.454 330.369)"/><path d="m371.195 422.911h40v56h-40z" transform="matrix(0 1 -1 0 842.106 59.716)"/><path d="m395.933 230.479h86.069c11.046 0 20-8.954 20-20v-22.775c0-11.046-8.954-20-20-20h-86.069c-11.046 0-20 8.954-20 20v22.775c0 11.046 8.954 20 20 20z"/><path d="m116.059 230.479h-86.059c-11.046 0-20-8.954-20-20v-22.775c0-11.046 8.954-20 20-20h86.059c11.046 0 20 8.954 20 20v22.775c0 11.046-8.955 20-20 20z"/></g><path d="m447.195 430.911v-97.983l-72.079-173.837h-238.494l-72.08 173.837v97.983z" fill="#ff9eb1"/><circle cx="255.869" cy="263.091" fill="#fff" r="104"/><circle cx="255.869" cy="263.091" fill="#ff7d97" r="20"/><path d="m214.623 159.091h-40v-33.954c0-11.046 8.954-20 20-20 11.046 0 20 8.954 20 20z" fill="#ff9eb1"/><path d="m297.114 159.091h40v-33.954c0-11.046-8.954-20-20-20-11.046 0-20 8.954-20 20z" fill="#ff9eb1"/><g><path d="m499.34 163.244v-7.283c0-68.854-56.017-124.87-124.87-124.87h-73.728c-5.522 0-10 4.477-10 10s4.478 10 10 10h73.728c57.825 0 104.87 47.044 104.87 104.87v1.742h-82.993c-7.995-23.875-28.212-41.946-53.005-47.107-5.127-9.211-14.96-15.459-26.228-15.459-10.643 0-20.002 5.575-25.329 13.954h-71.834c-5.327-8.379-14.686-13.954-25.329-13.954-11.293 0-21.146 6.275-26.263 15.52-24.649 5.243-44.753 23.286-52.715 47.046h-82.992v-1.742c0-57.825 47.044-104.87 104.87-104.87h73.22c5.523 0 10-4.477 10-10s-4.477-10-10-10h-73.22c-68.854 0-124.87 56.016-124.87 124.87v7.29c-7.649 5.442-12.652 14.371-12.652 24.452v22.776c0 16.542 13.458 30 30 30h62.05l-36.745 88.619c-.503 1.214-.763 2.516-.763 3.83v97.982c0 5.523 4.477 10 10 10h18v30c0 5.523 4.477 10 10 10h56c5.523 0 10-4.477 10-10v-30h194.653v30c0 5.523 4.478 10 10 10h56c5.522 0 10-4.477 10-10v-30h18c5.522 0 10-4.477 10-10v-97.982c0-1.314-.259-2.616-.763-3.83l-36.745-88.619h62.314c16.542 0 30-13.458 30-30v-22.776c.001-10.085-5.007-19.018-12.661-24.459zm-152.226-30.77c8.862 3.397 16.559 9.192 22.281 16.617h-22.281zm-40-7.337c0-5.514 4.486-10 10-10s10 4.486 10 10v23.954h-20zm-82.491 3.954h62.491v20h-62.491zm31.246 40c51.833 0 94 42.168 94 94s-42.168 94-94 94-94-42.168-94-94 42.168-94 94-94zm-71.246-43.954c0-5.514 4.486-10 10-10s10 4.486 10 10v23.954h-20zm-20 7.436v16.518h-22.02c5.668-7.349 13.271-13.107 22.02-16.518zm-134.623 87.906c-5.514 0-10-4.486-10-10v-22.776c0-5.514 4.486-10 10-10h88.079l-17.737 42.776zm108.542 240.432h-36v-20h36zm270.653 0h-36v-20h36zm28-125.992v85.992h-362.653v-85.991l68.758-165.828h48.147c-29.919 20.568-49.579 55.029-49.579 94 0 62.86 51.14 114 114 114s114-51.14 114-114c0-38.971-19.661-73.432-49.579-94h48.148zm54.807-124.44c0 5.514-4.486 10-10 10h-70.607l-17.737-42.776h88.343c5.514 0 10 4.486 10 10v22.776z"/><path d="m255.869 293.091c16.542 0 30-13.458 30-30s-13.458-30-30-30-30 13.458-30 30 13.458 30 30 30zm0-40c5.514 0 10 4.486 10 10s-4.486 10-10 10-10-4.486-10-10 4.485-10 10-10z"/><circle cx="255.741" cy="41.091" r="10"/><circle cx="255.741" cy="199.091" r="10"/><circle cx="255.741" cy="327.091" r="10"/><circle cx="319.741" cy="263.091" r="10"/><circle cx="191.741" cy="263.091" r="10"/><path d="m308.067 224.907c3.905-3.905 3.905-10.237 0-14.142s-10.237-3.905-14.142 0-3.905 10.237 0 14.142c3.905 3.906 10.237 3.906 14.142 0z"/><path d="m203.415 301.275c-3.905 3.905-3.905 10.237 0 14.142s10.237 3.905 14.142 0 3.905-10.237 0-14.142-10.237-3.905-14.142 0z"/><path d="m308.067 315.417c3.905-3.905 3.905-10.237 0-14.142s-10.237-3.905-14.142 0-3.905 10.237 0 14.142 10.237 3.905 14.142 0z"/><path d="m217.557 224.907c3.905-3.905 3.905-10.237 0-14.142s-10.237-3.905-14.142 0-3.905 10.237 0 14.142c3.905 3.906 10.237 3.906 14.142 0z"/></g></g></svg>