<svg id="Capa_1" enable-background="new 0 0 512 512" height="512" viewBox="0 0 512 512" width="512" xmlns="http://www.w3.org/2000/svg"><g><g><g><path d="m10 256c0 19.882 2.359 39.213 6.811 57.728l89.093-29.955c-1.656-9.006-2.521-18.289-2.521-27.773 0-42.144 17.082-80.298 44.7-107.916l-66.031-66.032c-44.517 44.517-72.052 106.017-72.052 173.948z" fill="#d1aee5"/><path d="m256 10c-67.931 0-129.431 27.535-173.948 72.052l66.032 66.032c27.618-27.618 65.773-44.701 107.917-44.701v-93.383z" fill="#c193dc"/></g><g><g><path d="m406.095 283.773 89.093 29.955c4.453-18.515 6.812-37.846 6.812-57.728 0-67.931-27.534-129.431-72.052-173.948l-66.032 66.032c27.618 27.618 44.7 65.772 44.7 107.916.001 9.485-.865 18.767-2.521 27.773z" fill="#b8ecbc"/></g><path d="m256 10v93.383c42.144 0 80.298 17.082 107.917 44.701l66.032-66.032c-44.518-44.517-106.018-72.052-173.949-72.052z" fill="#d0f2d2"/></g><g><path d="m16.811 313.728c10.761 44.747 33.753 84.732 65.241 116.22l66.032-66.032c-21.402-21.403-36.478-49.132-42.179-80.143z" fill="#c193dc"/><path d="m148.084 363.916-66.032 66.032c44.517 44.517 106.017 72.052 173.948 72.052v-93.383" fill="#fff7bf"/></g><g><path d="m495.189 313.728-89.093-29.955c-5.701 31.011-20.777 58.74-42.18 80.143l66.032 66.032c31.488-31.488 54.48-71.472 65.241-116.22z" fill="#ccf5fc"/><path d="m256 408.617v93.383c67.931 0 129.431-27.535 173.948-72.052l-66.032-66.032" fill="#fff2a0"/></g><path d="m168.7 381.2c-39.49-27.58-65.32-73.37-65.32-125.2 0-84.29 68.33-152.62 152.62-152.62s152.62 68.33 152.62 152.62c0 51.83-25.83 97.62-65.32 125.2" fill="#faf7f5"/><g><g><circle cx="256" cy="225.026" fill="#ffdcd5" r="66.582"/></g><g><path d="m343.3 353.16v28.04c-24.74 17.29-54.84 27.42-87.3 27.42s-62.56-10.13-87.3-27.42v-28.04c0-33.99 27.56-61.55 61.55-61.55h51.5c33.99 0 61.55 27.56 61.55 61.55z" fill="#ff7d97"/></g></g></g><g><path d="m493.13 200.28c-4.124 0-7.907-2.614-9.36-6.476-1.447-3.846-.341-8.328 2.756-11.04 3.182-2.786 7.93-3.256 11.591-1.137 3.568 2.064 5.544 6.215 4.872 10.288-.785 4.759-5.038 8.365-9.859 8.365z"/><path d="m512 256c0-7.209-.304-14.49-.902-21.64-.461-5.503-5.309-9.588-10.799-9.131-5.504.461-9.592 5.296-9.131 10.8.552 6.597.832 13.316.832 19.971 0 15.043-1.419 30.027-4.225 44.686l-70.503-23.705c.486-3.777.841-7.581 1.064-11.393.188-3.182.283-6.379.283-9.588 0-2.958-.08-5.897-.237-8.816-1.953-36.803-16.115-71.334-40.537-98.888l51.955-51.954c15.349 16.69 28.158 35.4 38.151 55.742 2.435 4.957 8.425 7.001 13.385 4.566 4.957-2.436 7.001-8.428 4.566-13.385-12.431-25.304-28.878-48.278-48.884-68.285-48.35-48.351-112.637-74.98-181.018-74.98-68.38 0-132.667 26.628-181.02 74.98-48.351 48.352-74.98 112.64-74.98 181.02 0 20.3 2.385 40.509 7.089 60.067 10.99 45.703 34.467 87.528 67.892 120.953 48.352 48.352 112.639 74.98 181.019 74.98s132.667-26.628 181.02-74.98c.008-.008.015-.016.023-.023 33.413-33.422 56.881-75.238 67.869-120.929 4.703-19.559 7.088-39.768 7.088-60.068zm-246-235.793c55.966 2.316 108.449 24.055 149.66 61.991l-51.956 51.956c-27.259-24.159-61.346-38.278-97.704-40.47zm-117.7 357.636c4.618 4.086 9.491 7.931 14.607 11.508.022.016.043.031.065.046 24.621 17.207 53.143 27.113 83.028 28.921v73.475c-55.965-2.316-108.448-24.055-149.66-61.991zm107.895 20.777c-.065-.001-.13-.003-.195-.003s-.13.001-.195.003c-27.588-.037-54.132-7.882-77.105-22.743v-22.717c0-28.425 23.125-51.55 51.55-51.55h51.5c28.425 0 51.55 23.125 51.55 51.55v22.716c-22.973 14.862-49.517 22.707-77.105 22.744zm-.195-117.013c-31.199 0-56.582-25.382-56.582-56.582s25.383-56.582 56.582-56.582 56.582 25.383 56.582 56.582-25.383 56.582-56.582 56.582zm47.561 3.402c17.671-14.041 29.021-35.711 29.021-59.983 0-42.228-34.354-76.582-76.582-76.582s-76.582 34.354-76.582 76.582c0 24.271 11.35 45.942 29.021 59.983-28.82 9.245-49.739 36.301-49.739 68.152v7.111c-26.715-24.961-42.991-59.4-45.089-96.155-.152-2.702-.229-5.41-.229-8.116 0-2.642.272-8.914.285-9.106.002-.033.004-.065.006-.097 4.564-71.325 61.796-128.557 133.12-133.123.034-.002.069-.005.103-.007.19-.012 6.46-.284 9.103-.284s8.913.272 9.103.284c.034.002.069.005.103.007 71.324 4.566 128.556 61.798 133.12 133.123.002.032.291 6.561.291 9.203 0 2.706-.077 5.414-.229 8.116-2.098 36.755-18.374 71.194-45.089 96.155v-7.111c.002-31.851-20.917-58.908-49.737-68.152zm-57.561-191.326c-36.357 2.192-70.445 16.311-97.704 40.47l-51.956-51.955c41.212-37.936 93.695-59.675 149.66-61.991zm-163.802 2.657 51.956 51.956c-24.422 27.554-38.584 62.085-40.537 98.888-.157 2.919-.237 5.858-.237 8.816 0 3.209.095 6.406.283 9.588.223 3.813.578 7.616 1.064 11.393l-70.503 23.705c-2.805-14.659-4.224-29.643-4.224-44.686 0-59.695 22.011-116.003 62.198-159.66zm16.344 200.459c6.396 24.813 18.536 47.627 35.613 66.904l-51.955 51.954c-25.072-27.275-43.344-59.948-53.355-95.425zm167.458 121.519c29.885-1.808 58.407-11.714 83.028-28.921.022-.015.044-.031.065-.046 5.116-3.577 9.989-7.421 14.606-11.508l51.96 51.96c-41.212 37.935-93.695 59.675-149.66 61.991v-73.476zm163.8-2.661-51.955-51.955c17.077-19.277 29.218-42.091 35.613-66.904l69.697 23.434c-10.011 35.476-28.282 68.15-53.355 95.425z"/></g></g></svg>