<svg id="Capa_1" enable-background="new 0 0 512 512" height="512" viewBox="0 0 512 512" width="512" xmlns="http://www.w3.org/2000/svg"><g id="XMLID_1824_"><g id="XMLID_2108_"><path id="XMLID_2123_" d="m277.222 253.407h-42.445c-41.596 0-75.316 33.72-75.316 75.316v18.153h193.076v-18.153c.001-41.596-33.719-75.316-75.315-75.316z" fill="#ff7b79"/><path id="XMLID_2122_" d="m256 165.125c-22.726 0-41.148 18.423-41.148 41.148v5.985c0 22.725 18.423 41.148 41.148 41.148 22.725 0 41.148-18.423 41.148-41.148v-5.985c0-22.725-18.423-41.148-41.148-41.148z" fill="#f3c9a6"/></g><g id="XMLID_58_"><path id="XMLID_59_" d="m28.286 27h-18.286c-5.523 0-10 4.478-10 10s4.477 10 10 10h8.286v70c0 5.522 4.477 10 10 10s10-4.478 10-10v-80c0-5.522-4.477-10-10-10z"/><path id="XMLID_1287_" d="m76.314 47h8.286v70c0 5.522 4.477 10 10 10s10-4.478 10-10v-80c0-5.522-4.477-10-10-10h-18.286c-5.523 0-10 4.478-10 10s4.477 10 10 10z"/><path id="XMLID_1296_" d="m236.314 47h8.286v70c0 5.522 4.477 10 10 10s10-4.478 10-10v-80c0-5.522-4.477-10-10-10h-18.286c-5.523 0-10 4.478-10 10s4.477 10 10 10z"/><path id="XMLID_1297_" d="m302.6 47h8.286v70c0 5.522 4.477 10 10 10s10-4.478 10-10v-80c0-5.522-4.477-10-10-10h-18.286c-5.523 0-10 4.478-10 10s4.477 10 10 10z"/><path id="XMLID_1301_" d="m198.314 94.143v-34.286c0-18.117-14.74-32.857-32.857-32.857s-32.857 14.74-32.857 32.857v34.285c0 18.117 14.74 32.857 32.857 32.857 18.117.001 32.857-14.739 32.857-32.856zm-45.714 0v-34.286c0-7.09 5.768-12.857 12.857-12.857s12.857 5.768 12.857 12.857v34.285c0 7.09-5.768 12.857-12.857 12.857-7.089.001-12.857-5.767-12.857-12.856z"/><path id="XMLID_1304_" d="m421.002 94.143v-34.286c0-18.117-14.74-32.857-32.857-32.857-18.118 0-32.857 14.74-32.857 32.857v34.285c0 18.117 14.74 32.857 32.857 32.857 18.118.001 32.857-14.739 32.857-32.856zm-45.714 0v-34.286c0-7.09 5.768-12.857 12.857-12.857s12.857 5.768 12.857 12.857v34.285c0 7.09-5.768 12.857-12.857 12.857-7.089.001-12.857-5.767-12.857-12.856z"/><path id="XMLID_1308_" d="m479.143 27c-18.117 0-32.857 14.74-32.857 32.857v34.285c0 18.117 14.74 32.857 32.857 32.857 18.117.001 32.857-14.739 32.857-32.856v-34.286c0-18.117-14.74-32.857-32.857-32.857zm12.857 67.143c0 7.09-5.768 12.857-12.857 12.857-7.089 0-12.857-5.768-12.857-12.857v-34.286c0-7.09 5.768-12.857 12.857-12.857s12.857 5.768 12.857 12.857z"/><path id="XMLID_1309_" d="m28.286 206h-18.286c-5.523 0-10 4.477-10 10s4.477 10 10 10h8.286v70c0 5.522 4.477 10 10 10s10-4.478 10-10v-80c0-5.523-4.477-10-10-10z"/><path id="XMLID_1311_" d="m502 206h-18.286c-5.523 0-10 4.477-10 10s4.477 10 10 10h8.286v70c0 5.522 4.477 10 10 10s10-4.478 10-10v-80c0-5.523-4.477-10-10-10z"/><path id="XMLID_1315_" d="m98.095 306c18.117 0 32.857-14.74 32.857-32.857v-34.285c0-18.117-14.74-32.857-32.857-32.857s-32.857 14.74-32.857 32.857v34.285c0 18.117 14.74 32.857 32.857 32.857zm-12.857-67.143c0-7.09 5.768-12.857 12.857-12.857s12.857 5.768 12.857 12.857v34.285c0 7.09-5.768 12.857-12.857 12.857s-12.857-5.768-12.857-12.857z"/><path id="XMLID_1322_" d="m413.905 206c-18.118 0-32.857 14.74-32.857 32.857v34.285c0 18.117 14.74 32.857 32.857 32.857s32.857-14.74 32.857-32.857v-34.285c0-18.117-14.74-32.857-32.857-32.857zm12.857 67.143c0 7.09-5.768 12.857-12.857 12.857s-12.857-5.768-12.857-12.857v-34.285c0-7.09 5.768-12.857 12.857-12.857s12.857 5.768 12.857 12.857z"/><path id="XMLID_1324_" d="m28.286 385h-18.286c-5.523 0-10 4.478-10 10s4.477 10 10 10h8.286v70c0 5.522 4.477 10 10 10s10-4.478 10-10v-80c0-5.522-4.477-10-10-10z"/><path id="XMLID_1325_" d="m275.714 385h-18.286c-5.523 0-10 4.478-10 10s4.477 10 10 10h8.286v70c0 5.522 4.477 10 10 10s10-4.478 10-10v-80c0-5.522-4.477-10-10-10z"/><path id="XMLID_1328_" d="m342 385h-18.286c-5.523 0-10 4.478-10 10s4.477 10 10 10h8.286v70c0 5.522 4.477 10 10 10s10-4.478 10-10v-80c0-5.522-4.477-10-10-10z"/><path id="XMLID_1329_" d="m502 385h-18.286c-5.523 0-10 4.478-10 10s4.477 10 10 10h8.286v70c0 5.522 4.477 10 10 10s10-4.478 10-10v-80c0-5.522-4.477-10-10-10z"/><path id="XMLID_1334_" d="m99.171 385c-18.118 0-32.857 14.74-32.857 32.857v34.285c0 18.117 14.74 32.857 32.857 32.857s32.857-14.74 32.857-32.857v-34.285c0-18.117-14.739-32.857-32.857-32.857zm12.857 67.143c0 7.09-5.768 12.857-12.857 12.857s-12.857-5.768-12.857-12.857v-34.285c0-7.09 5.768-12.857 12.857-12.857s12.857 5.768 12.857 12.857z"/><path id="XMLID_1342_" d="m192.886 385c-18.118 0-32.857 14.74-32.857 32.857v34.285c0 18.117 14.74 32.857 32.857 32.857s32.857-14.74 32.857-32.857v-34.285c0-18.117-14.74-32.857-32.857-32.857zm12.857 67.143c0 7.09-5.768 12.857-12.857 12.857-7.09 0-12.857-5.768-12.857-12.857v-34.285c0-7.09 5.768-12.857 12.857-12.857s12.857 5.768 12.857 12.857z"/><path id="XMLID_1347_" d="m412.857 385c-18.117 0-32.857 14.74-32.857 32.857v34.285c0 18.118 14.74 32.858 32.857 32.858s32.857-14.74 32.857-32.857v-34.285c0-18.118-14.739-32.858-32.857-32.858zm12.857 67.143c0 7.09-5.768 12.857-12.857 12.857-7.089 0-12.857-5.768-12.857-12.857v-34.285c0-7.09 5.768-12.857 12.857-12.857s12.857 5.768 12.857 12.857z"/><path id="XMLID_1350_" d="m295.011 245.285c7.562-8.918 12.137-20.445 12.137-33.026v-5.985c0-28.203-22.945-51.148-51.148-51.148s-51.148 22.945-51.148 51.148v5.985c0 12.581 4.575 24.108 12.137 33.026-38.531 8.207-67.527 42.494-67.527 83.437v18.152c0 5.522 4.477 10 10 10h51.665c5.523 0 10-4.478 10-10s-4.477-10-10-10h-41.665v-8.152c0-36.016 29.3-65.316 65.315-65.316h11.223v28.844c0 5.522 4.477 10 10 10s10-4.478 10-10v-28.844h11.222c36.015 0 65.316 29.301 65.316 65.316v8.152h-41.411c-5.523 0-10 4.478-10 10s4.477 10 10 10h51.411c5.523 0 10-4.478 10-10v-18.152c0-40.943-28.995-75.23-67.527-83.437zm-70.159-39.012c0-17.176 13.973-31.148 31.148-31.148s31.148 13.973 31.148 31.148v5.985c0 17.175-13.973 31.147-31.148 31.147s-31.148-13.973-31.148-31.147z"/><path id="XMLID_1352_" d="m256.13 356.87c2.63 0 5.21-1.06 7.07-2.931 1.86-1.859 2.93-4.43 2.93-7.06 0-2.64-1.07-5.21-2.93-7.08-1.86-1.86-4.44-2.93-7.07-2.93-2.64 0-5.21 1.069-7.07 2.93-1.87 1.87-2.93 4.44-2.93 7.08 0 2.63 1.06 5.2 2.93 7.06 1.86 1.871 4.43 2.931 7.07 2.931z"/></g></g></svg>